<?xml version="1.0" standalone="no"?>
<!DOCTYPE svg PUBLIC "-//W3C//DTD SVG 1.1//EN" "http://www.w3.org/Graphics/SVG/1.1/DTD/svg11.dtd">
<svg xmlns="http://www.w3.org/2000/svg" width="120" height="120" viewBox="13 13 94 94" aria-hidden="true">
  <defs>
    <style>
      .green-dark     { fill: #166534; }
      .green-medium   { fill: #86EFAC; }
      .green-light    { fill: #BBF7D0; }
      .green-darker   { fill: #0F4526; } 
      .diag-line      { stroke: #86EFAC; stroke-width: 2.8; stroke-linecap: round; }
    </style>

    <clipPath id="clip-top-small" clipPathUnits="userSpaceOnUse">
      <path d="M14 -1 L121 -1 L121 49 L14 49 Z"/>
    </clipPath>

    <clipPath id="clip-right" clipPathUnits="userSpaceOnUse">
      <path d="M104 14 L121 14 L121 121 L14 121 L14 106 Z"/>
    </clipPath>
  </defs>

  <g transform="translate(60,50) rotate(-45) translate(-50,-35) translate(-6,-6)" clip-path="url(#clip-top-small)">
    <rect x="20" y="20" width="60" height="40" rx="8" ry="8" class="green-light" stroke="#166534" stroke-width="2"/>
    <rect x="24" y="24" width="52" height="32" rx="6" ry="6" class="green-medium"/>
    <rect x="74" y="28" width="8" height="24" rx="4" ry="4" class="green-darker"/>
    <circle cx="78" cy="34" r="2" class="green-light"/>
    <circle cx="78" cy="40" r="2" class="green-light"/>
    <circle cx="78" cy="46" r="2" class="green-light"/>

    <!-- Antennes -->
    <line x1="28" y1="20" x2="18" y2="8" stroke="#166534" stroke-width="1.5"/>
    <line x1="52" y1="20" x2="62" y2="8" stroke="#166534" stroke-width="1.5"/>
  </g>

  <g clip-path="url(#clip-right)">
    <rect class="green-dark" x="32" y="69" width="12" height="24" transform="rotate(-45 38 81)"/>
    <rect class="green-medium" x="48" y="43" width="12" height="48" transform="rotate(-45 54 67)"/>
    <rect class="green-dark" x="64" y="9" width="12" height="88" transform="rotate(-45 70 53)"/>
    <rect class="green-medium" x="80" y="27" width="12" height="24" transform="rotate(-45 86 39)"/>
  </g>

  <line class="diag-line" x1="15" y1="105" x2="105" y2="15"/>
</svg>