<svg width="200" height="200" viewBox="13 13 94 94" xmlns="http://www.w3.org/2000/svg" aria-hidden="true">
  <defs>
    <style>
      .red-dark   { fill: #991b1b; }
      .red-medium { fill: #f87171; }
      .red-light  { fill: #fecaca; }
      .diag-line  { stroke: #f87171; stroke-width: 2.8; stroke-linecap: round; }
    </style>

    <clipPath id="medi-clip-left" clipPathUnits="userSpaceOnUse">
      <path d="M14 106 L14 -1 L121 -1 L106 14 Z"/>
    </clipPath>

    <clipPath id="medi-clip-right" clipPathUnits="userSpaceOnUse">
      <path d="M104 14 L121 14 L121 121 L14 121 L14 106 Z"/>
    </clipPath>
  </defs>

  <!-- Top-left: medical cross on circle -->
  <g clip-path="url(#medi-clip-left)">
    <circle class="red-light" cx="58" cy="56" r="38"/>
    <rect class="red-dark" x="50" y="32" width="16" height="48" rx="5"/>
    <rect class="red-dark" x="32" y="48" width="52" height="16" rx="5"/>
    <circle class="red-medium" cx="58" cy="56" r="9"/>
  </g>

  <!-- Bottom-right: diagonal bar charts -->
  <g clip-path="url(#medi-clip-right)">
    <rect class="red-dark"   x="30" y="69" width="12" height="24" transform="rotate(-45 38 81)"/>
    <rect class="red-medium" x="46" y="43" width="12" height="48" transform="rotate(-45 54 67)"/>
    <rect class="red-dark"   x="62" y="9"  width="12" height="88" transform="rotate(-45 70 53)"/>
    <rect class="red-medium" x="80" y="25" width="12" height="24" transform="rotate(-45 86 39)"/>
  </g>

  <!-- Diagonal dividing line -->
  <line class="diag-line" x1="15" y1="105" x2="105" y2="15"/>
</svg>
