<svg width="24" height="24" viewBox="0 0 24 24" fill="none" xmlns="http://www.w3.org/2000/svg">
  <path d="M4.5 11.1C4.5 9.7 5.64 8.56 7.05 8.56H8.25C9.41 8.56 10.55 8.29 11.58 7.77L16.85 5.12C17.48 4.8 18.22 5.26 18.22 5.96V16.04C18.22 16.74 17.48 17.2 16.85 16.88L11.58 14.23C10.55 13.71 9.41 13.44 8.25 13.44H7.05C5.64 13.44 4.5 12.3 4.5 10.9V11.1Z" fill="#166534"/>
  <path d="M4.5 11.1C4.5 9.7 5.64 8.56 7.05 8.56H8.25C9.41 8.56 10.55 8.29 11.58 7.77L16.85 5.12C17.48 4.8 18.22 5.26 18.22 5.96V16.04C18.22 16.74 17.48 17.2 16.85 16.88L11.58 14.23C10.55 13.71 9.41 13.44 8.25 13.44H7.05C5.64 13.44 4.5 12.3 4.5 10.9V11.1Z" stroke="#86EFAC" stroke-width="1.4" stroke-linejoin="round"/>
  <path d="M5.55 8.95L4.35 8.95C3.33 8.95 2.5 9.78 2.5 10.8V11.2C2.5 12.22 3.33 13.05 4.35 13.05H5.55C6.2 13.05 6.72 12.53 6.72 11.88V10.12C6.72 9.47 6.2 8.95 5.55 8.95Z" fill="#BBF7D0"/>
  <path d="M6 13.2L7.85 18.15" stroke="#86EFAC" stroke-width="1.5" stroke-linecap="round"/>
  <path d="M17.8 8.15L20.55 6.55M18.55 10.95H21.5M17.8 13.85L20.55 15.45" stroke="#86EFAC" stroke-width="1.5" stroke-linecap="round"/>
  <path d="M3.45 10.55H4.65M3.45 12.1H4.3" stroke="#86EFAC" stroke-width="1.3" stroke-linecap="round"/>
</svg>
